<?xml version="1.0" encoding="utf-8"?><!-- Uploaded to: SVG Repo, www.svgrepo.com, Generator: SVG Repo Mixer Tools -->
<svg id="kids" height="100px" width="150px" viewBox="-24 0 512 512" xmlns="http://www.w3.org/2000/svg" xmlns:xlink="http://www.w3.org/1999/xlink" aria-hidden="true" role="img" class="iconify iconify--twemoji" preserveAspectRatio="xMidYMid meet">
	<path id="boy" d="M255.961,286.654c-5.757,0-10.423,4.667-10.423,10.423v0.497c0,5.755,4.666,10.423,10.423,10.423
				c5.756,0,10.423-4.667,10.423-10.423v-0.497C266.384,291.321,261.718,286.654,255.961,286.654z M221.193,106.607
				c-7.008,0-12.711,6.009-12.711,13.394c0,7.386,5.701,13.394,12.711,13.394c7.008,0,12.71-6.008,12.71-13.394C233.903,112.616,228.201,106.607,221.193,106.607z 
				M290.578,106.607c-7.009,0-12.712,6.009-12.712,13.394c0,7.386,5.702,13.394,12.712,13.394c7.007,0,12.708-6.008,12.707-13.394
				C303.285,112.616,297.585,106.607,290.578,106.607z M276.218,150.18c-2.836-5.008-9.196-6.773-14.204-3.935c-0.674,0.383-2.815,1.104-6.092,1.104
				c-3.277,0-5.419-0.723-6.094-1.105c-5.008-2.836-11.369-1.074-14.204,3.938c-2.836,5.01-1.073,11.369,3.938,14.204
				c4.339,2.455,10.149,3.807,16.36,3.807c6.213,0,12.024-1.353,16.362-3.809C277.292,161.549,279.054,155.19,276.218,150.18z 
				M400.3,273.375l-76.714-76.715c-1.036-1.035-2.238-1.804-3.518-2.314c18.959-14.07,33.308-34.241,39.809-57.915
				c9.965-4.206,16.947-15.33,16.947-28.588c0-13.256-6.982-24.381-16.947-28.587C347.164,32.951,304.455,0,255.876,0
				c-48.597,0-91.319,32.98-104.016,79.314c-9.905,4.249-16.843,15.355-16.843,28.53c0,13.173,6.94,24.28,16.843,28.53
				c6.501,23.723,20.881,43.931,39.884,58.016c-1.239,0.508-2.4,1.263-3.407,2.27l-76.634,76.635
				c-5.25,5.249-8.142,12.228-8.142,19.651c0,7.423,2.891,14.402,8.141,19.651c5.418,5.418,12.533,8.127,19.651,8.126
				c7.116,0,14.234-2.709,19.653-8.126l30.707-30.707v142.904c0,5.757,4.666,10.423,10.423,10.423h7.032v11.102h-11.636
				c-29.899,0-43.282,21.734-43.282,43.272c0,12.355,10.053,22.407,22.408,22.407h61.124c12.355,0,22.407-10.052,22.407-22.407
				l0.057-112.104c0-3.13,2.545-5.675,5.674-5.675c3.13,0,5.676,2.545,5.676,5.675l0.015,112.109
				c0,12.353,10.05,22.403,22.403,22.403h61.095c12.353,0,22.403-10.051,22.403-22.403c0-21.53-13.379-43.256-43.268-43.256h-11.613
				v-11.123h7.076c5.757,0,10.423-4.666,10.423-10.423V281.812l30.867,30.867c5.419,5.417,12.536,8.126,19.651,8.126
				c7.117,0,14.233-2.709,19.65-8.126c5.251-5.249,8.141-12.228,8.141-19.651C408.44,285.604,405.549,278.624,400.3,273.375z
				M255.876,20.846c34.922,0,66.07,21.111,79.699,52.134c-8.405,4.413-17.742,6.726-27.339,6.726
				c-17.053,0-33.272-7.397-44.499-20.294c-1.979-2.274-4.847-3.579-7.861-3.579c-3.015,0-5.883,1.306-7.862,3.58
				c-11.226,12.896-27.445,20.293-44.5,20.293c-9.614,0-18.935-2.314-27.336-6.728C189.808,41.956,220.954,20.846,255.876,20.846z
				M189.765,244.525c-0.393,0.295-0.776,0.609-1.134,0.967l-52.364,52.364c-2.71,2.709-7.116,2.711-9.827,0
				c-1.311-1.311-2.035-3.055-2.035-4.909c0-1.854,0.722-3.599,2.036-4.911l71.97-71.97
				C196.882,226.756,193.571,236.853,189.765,244.525z M227.781,491.154h-61.125c-0.862,0-1.562-0.7-1.562-1.561
				c0-3.396,0.797-8.522,3.035-12.727c3.473-6.527,9.819-9.684,19.401-9.684h41.811v22.411h0.001
				C229.343,490.454,228.642,491.154,227.781,491.154z M229.343,446.322h-9.329v-11.102h9.329V446.322z M255.92,350.968
				c-14.623,0-26.52,11.898-26.52,26.521v36.884h-26.842v-71.731h106.726v71.731h-26.843v-36.884
				C282.443,362.865,270.545,350.968,255.92,350.968z M255.961,273.781c5.756,0,10.423-4.667,10.423-10.423v-27.311
				c11.178-3.392,20.083-12.062,23.787-23.103l1.924,0.218c1.843,20.752,9.464,39.552,17.189,50.627v58.008H202.558v-58.008
				c7.724-11.074,15.345-29.874,17.187-50.627l1.925-0.218c3.713,11.068,12.651,19.756,23.868,23.129v27.285
				C245.539,269.113,250.205,273.781,255.961,273.781z M249.877,215.501c1.99,0.112,3.988,0.189,6,0.189
				c2.047,0,4.078-0.08,6.101-0.196c-1.858,0.807-3.905,1.26-6.059,1.26C253.774,216.753,251.731,216.303,249.877,215.501z
				M282.456,435.218h9.329v11.118h-9.329V435.218z M324.244,467.187c9.576,0,15.918,3.171,19.388,9.692
				c2.237,4.204,3.034,9.325,3.034,12.718c0,0.859-0.699,1.557-1.557,1.557h-61.095c-0.859,0-1.557-0.698-1.557-1.557v-22.41H324.244
				z M255.876,194.843c-41.001,0-76.817-29.089-85.163-69.168c-0.984-4.728-5.087-8.16-9.914-8.294
				c-1.966-0.055-4.937-3.887-4.937-9.536c0-5.651,2.971-9.483,4.935-9.536c3.743-0.103,7.043-2.193,8.799-5.329
				c10.552,4.972,22.07,7.572,33.917,7.572c19.359,0,37.918-7.035,52.361-19.595c14.444,12.559,33.004,19.595,52.36,19.595
				c11.828,0,23.364-2.595,33.925-7.569c1.771,3.152,5.103,5.245,8.87,5.321c1.971,0.04,4.95,3.866,4.95,9.541
				s-2.978,9.501-4.948,9.541c-4.858,0.098-9.003,3.54-9.994,8.296C332.691,165.756,296.875,194.843,255.876,194.843z
				M385.56,297.938c-2.708,2.709-7.116,2.707-9.823,0l-51.999-52.001c-0.502-0.502-1.045-0.942-1.616-1.322
				c-3.837-7.706-7.176-17.877-8.707-28.645l72.147,72.147c1.312,1.312,2.035,3.057,2.035,4.911
				C387.595,294.882,386.873,296.625,385.56,297.938z"/>
	<path id="girl" d="M221.489,105.983c-7.015,0-12.724,6.012-12.724,13.403c0,7.39,5.708,13.402,12.724,13.402s12.724-6.012,12.724-13.402
				C234.213,111.995,228.505,105.983,221.489,105.983 M290.467,105.983c-7.018,0-12.726,6.012-12.726,13.403c0,7.39,5.708,13.402,12.726,13.402
				c7.014,0,12.721-6.012,12.721-13.402C303.188,111.995,297.481,105.983,290.467,105.983z M276.269,149.341c-2.845-5.021-9.219-6.785-14.242-3.943
				c-0.662,0.375-2.772,1.086-6.012,1.086s-5.35-0.711-6.014-1.086c-5.02-2.843-11.397-1.078-14.24,3.945c-2.843,5.022-1.077,11.397,3.946,14.24
				c4.325,2.449,10.117,3.798,16.308,3.798c6.192,0,11.985-1.349,16.312-3.798C277.346,160.739,279.112,154.363,276.269,149.341z M256.055,281.858
				c-5.771,0-10.449,4.679-10.449,10.449v0.498c0,5.77,4.678,10.449,10.449,10.449c5.77,0,10.449-4.679,10.449-10.449v-0.498
				C266.504,286.537,261.825,281.858,256.055,281.858z M383.013,294.27c-0.266-0.562-21.86-46.182-33.396-70.662h1.076c5.77,0,10.449-4.678,10.449-10.449
				v-77.67c0-0.171-0.018-0.339-0.025-0.508c9.01-4.697,15.178-15.246,15.178-27.682c0-13.197-6.944-24.275-16.863-28.483C346.769,32.766,304.287,0,255.969,0
				c-48.337,0-90.833,32.791-103.478,78.871c-9.857,4.252-16.758,15.312-16.758,28.426c0,12.388,6.163,22.936,15.153,27.651v78.211
				c0,5.771,4.679,10.449,10.449,10.449h1.051c-11.537,24.482-33.135,70.111-33.424,70.722c-2.945,6.326-3.251,13.42-0.861,19.974
				c2.39,6.556,7.189,11.787,13.515,14.734c3.486,1.623,7.192,2.446,11.017,2.446c1.828,0,3.626-0.199,5.375-0.57l-19.036,58.748c-1.03,3.18-0.477,6.661,1.489,9.365
				s5.109,4.304,8.451,4.304h50.208v42.824h-11.665c-29.975,0-43.39,21.788-43.39,43.381c0,12.386,10.078,22.463,22.464,22.463
				h61.278c12.386,0,22.463-10.077,22.463-22.463v-86.205h11.451v86.209c0,12.384,10.076,22.459,22.459,22.459h61.249
				c12.384,0,22.459-10.076,22.459-22.459c0-21.584-13.412-43.364-43.377-43.364h-11.642v-42.845h50.249
				c3.343,0,6.485-1.6,8.451-4.304c1.966-2.704,2.519-6.185,1.489-9.365l-19.034-58.744c1.741,0.368,3.531,0.565,5.349,0.565
				c3.825,0,7.532-0.823,11.017-2.446c6.326-2.946,11.124-8.177,13.515-14.734C386.293,307.749,385.986,300.655,383.013,294.27z
				M166.526,491.102c-0.863,0-1.566-0.702-1.566-1.565c0-3.404,0.799-8.543,3.043-12.759c1.611-3.028,3.849-5.328,6.731-6.934
				c7.833,4.974,13.443,12.513,15.939,21.258H166.526z M337.202,469.853c2.888,1.604,5.13,3.905,6.744,6.938
				c2.243,4.214,3.042,9.349,3.042,12.75c0,0.861-0.7,1.561-1.561,1.561h-24.152C323.769,482.361,329.375,474.826,337.202,469.853z
				M255.969,20.898c38.882,0,73.051,26.35,83.271,63.38c-6.654,1.984-13.565,2.992-20.663,2.992
				c-20.973,0-40.921-9.096-54.728-24.956c-1.984-2.281-4.859-3.589-7.882-3.589s-5.897,1.308-7.882,3.589
				C234.28,78.174,214.332,87.27,193.358,87.27c-7.095,0-14.006-1.01-20.659-2.994C182.923,47.247,217.089,20.898,255.969,20.898z
				M161.455,116.692c-1.922-0.054-4.824-3.827-4.824-9.394c0-2.424,0.551-4.508,1.331-6.094c11.221,4.62,23.1,6.964,35.397,6.964
				c23.252,0,45.521-8.674,62.609-24.106c17.088,15.433,39.357,24.106,62.609,24.106c12.32,0,24.214-2.352,35.448-6.986
				c0.794,1.565,1.373,3.637,1.373,6.116c0,5.769-3.131,9.364-4.836,9.399c-4.869,0.099-9.025,3.549-10.017,8.316
				c-8.289,39.799-43.859,68.685-84.575,68.685c-40.719,0-76.288-28.89-84.576-68.693
				C170.406,120.268,166.292,116.827,161.455,116.692z M340.245,173.58v29.131h-2.605c-5.275-4.9-12.138-7.494-18.491-8.841
				C327.045,188.1,334.157,181.277,340.245,173.58z M262.929,214.342c-2.079,1.06-4.425,1.67-6.915,1.67
				c-2.485,0-4.824-0.608-6.899-1.662c2.272,0.147,4.553,0.248,6.856,0.248C258.306,214.597,260.623,214.494,262.929,214.342z
				M192.804,193.881c-6.338,1.349-13.179,3.943-18.44,8.829h-2.58v-29.017C177.855,181.35,184.941,188.137,192.804,193.881z
				M157.438,307.436c-0.021,0.042-0.041,0.085-0.061,0.126c-0.855,1.837-2.719,3.023-4.746,3.023c-0.754,0-1.493-0.165-2.195-0.493
				c-2.611-1.216-3.747-4.33-2.559-6.882c0.327-0.691,32.804-69.302,39.385-83.408c1.428-3.063,6.235-4.84,11.269-5.722
				c-2.123,16.379-8.502,31.551-14.572,39.019c-0.509,0.627-0.934,1.314-1.285,2.04c-0.007-0.005-0.013-0.007-0.02-0.013
				L157.438,307.436z M227.803,491.102h-15.737c-1.608-8.729-5.192-16.941-10.362-24.033h27.665v22.467h0
				C229.369,490.4,228.667,491.102,227.803,491.102z M229.369,446.156h-9.353v-42.824h9.353V446.156z M299.882,491.102h-15.704
				c-0.861,0-1.561-0.7-1.561-1.561v-22.466h27.617C305.067,474.163,301.488,482.379,299.882,491.102z M282.616,446.171v-42.84h9.353
				v42.84H282.616z M163.279,382.433l38.165-117.781c8.098-10.854,16.37-30.478,18.303-52.242l1.93-0.218
				c3.722,11.096,12.683,19.806,23.928,23.187v23.124c0,5.771,4.678,10.449,10.449,10.449c5.77,0,10.449-4.679,10.449-10.449v-23.15
				c11.207-3.4,20.134-12.094,23.847-23.162l1.929,0.218c1.933,21.765,10.207,41.387,18.306,52.242l38.162,117.782H163.279z
				M364.269,307.147c-0.277,0.76-0.996,2.151-2.703,2.946c-0.702,0.327-1.441,0.493-2.195,0.493c-2.027,0-3.891-1.187-4.746-3.023
				c-0.019-0.042-0.04-0.085-0.061-0.126l-24.992-51.839c-0.382-0.897-0.888-1.738-1.504-2.496
				c-6.07-7.466-12.449-22.636-14.573-39.01c5.029,0.883,9.818,2.657,11.244,5.714c6.582,14.106,39.058,82.717,39.357,83.349
				C364.892,304.858,364.546,306.387,364.269,307.147z"/>
</svg>